<?xml version="1.0" encoding="UTF-8"?>
<svg xmlns="http://www.w3.org/2000/svg" viewBox="0 0 1626 310" role="img" aria-labelledby="title">
  <title id="title">Research handwritten word, set 1</title>
  <path d="M 1607 131 L 1606 129 L 1599 123 L 1591 124 L 1558 142 L 1534 157 L 1507 171 L 1505 171 L 1500 174 L 1490 177 L 1483 181 L 1480 181 L 1477 183 L 1475 183 L 1468 187 L 1452 189 L 1448 191 L 1440 190 L 1436 192 L 1430 192 L 1429 191 L 1423 191 L 1421 192 L 1419 190 L 1416 190 L 1414 187 L 1411 187 L 1408 185 L 1404 177 L 1404 172 L 1401 168 L 1403 163 L 1403 160 L 1402 159 L 1401 145 L 1399 140 L 1399 136 L 1396 131 L 1396 129 L 1394 127 L 1394 125 L 1386 116 L 1383 117 L 1379 115 L 1369 120 L 1366 120 L 1359 123 L 1340 135 L 1335 140 L 1329 143 L 1321 149 L 1317 153 L 1316 156 L 1310 159 L 1305 163 L 1304 162 L 1304 158 L 1307 154 L 1309 146 L 1311 143 L 1311 139 L 1313 137 L 1313 135 L 1317 128 L 1316 126 L 1317 123 L 1319 121 L 1321 114 L 1324 109 L 1325 102 L 1328 98 L 1328 94 L 1332 88 L 1332 84 L 1334 82 L 1335 76 L 1338 73 L 1339 68 L 1341 66 L 1341 63 L 1344 57 L 1345 50 L 1348 47 L 1350 43 L 1350 40 L 1354 32 L 1354 29 L 1355 28 L 1354 21 L 1351 19 L 1349 16 L 1346 16 L 1321 30 L 1312 37 L 1309 43 L 1309 45 L 1307 47 L 1307 52 L 1302 57 L 1302 60 L 1297 68 L 1297 71 L 1293 77 L 1293 80 L 1285 90 L 1285 94 L 1281 98 L 1279 103 L 1272 112 L 1272 114 L 1268 118 L 1268 120 L 1266 123 L 1260 129 L 1252 140 L 1245 146 L 1244 149 L 1240 153 L 1234 157 L 1227 164 L 1219 170 L 1203 180 L 1170 196 L 1162 198 L 1153 203 L 1150 203 L 1149 204 L 1144 203 L 1136 206 L 1134 205 L 1133 206 L 1122 206 L 1121 204 L 1116 200 L 1113 194 L 1114 192 L 1113 184 L 1114 183 L 1115 172 L 1117 169 L 1117 164 L 1121 156 L 1126 166 L 1129 169 L 1134 169 L 1142 166 L 1144 164 L 1149 162 L 1154 158 L 1160 155 L 1165 150 L 1167 146 L 1167 140 L 1168 139 L 1167 138 L 1167 131 L 1168 129 L 1166 126 L 1167 125 L 1167 122 L 1166 121 L 1166 118 L 1164 112 L 1158 102 L 1154 99 L 1150 99 L 1149 98 L 1147 99 L 1143 99 L 1142 100 L 1140 99 L 1139 100 L 1138 99 L 1132 99 L 1130 98 L 1117 104 L 1104 113 L 1092 119 L 1088 122 L 1087 124 L 1077 132 L 1070 139 L 1066 145 L 1061 148 L 1055 154 L 1050 161 L 1041 170 L 1037 172 L 1036 174 L 1029 180 L 1028 183 L 1024 187 L 1019 190 L 1010 200 L 991 216 L 987 215 L 986 212 L 988 206 L 988 199 L 992 189 L 992 186 L 995 178 L 995 175 L 994 174 L 996 171 L 995 169 L 996 160 L 992 150 L 984 143 L 981 142 L 975 142 L 974 143 L 968 141 L 966 142 L 963 141 L 960 142 L 958 141 L 954 143 L 949 143 L 948 142 L 960 126 L 961 123 L 978 101 L 980 96 L 982 94 L 983 87 L 989 80 L 989 74 L 990 71 L 988 68 L 987 64 L 983 59 L 979 57 L 970 57 L 969 56 L 967 57 L 965 55 L 961 55 L 960 56 L 955 56 L 950 59 L 945 60 L 917 76 L 911 81 L 907 83 L 890 101 L 890 103 L 887 106 L 887 109 L 883 113 L 883 116 L 884 117 L 880 121 L 880 124 L 877 130 L 878 131 L 877 140 L 878 141 L 878 146 L 880 152 L 886 161 L 890 164 L 891 167 L 887 170 L 879 179 L 875 181 L 851 203 L 845 206 L 840 211 L 836 212 L 833 214 L 829 214 L 828 215 L 822 214 L 817 210 L 817 208 L 815 205 L 815 202 L 813 198 L 814 196 L 814 192 L 813 191 L 813 176 L 814 175 L 814 167 L 817 163 L 817 154 L 814 145 L 810 138 L 810 136 L 807 133 L 806 130 L 796 120 L 794 120 L 790 117 L 784 117 L 783 116 L 777 115 L 762 121 L 746 132 L 740 135 L 732 143 L 732 144 L 726 150 L 725 153 L 720 158 L 719 164 L 715 170 L 716 173 L 713 176 L 712 179 L 702 187 L 694 196 L 690 198 L 679 209 L 679 210 L 659 229 L 657 232 L 651 236 L 640 247 L 636 249 L 630 249 L 629 250 L 627 248 L 624 248 L 609 234 L 608 230 L 604 224 L 603 218 L 600 212 L 599 201 L 621 186 L 624 185 L 630 179 L 636 175 L 651 160 L 654 153 L 660 147 L 660 144 L 662 141 L 662 137 L 664 134 L 664 121 L 662 118 L 662 113 L 660 110 L 660 108 L 656 102 L 653 99 L 644 94 L 643 95 L 642 94 L 641 95 L 640 94 L 636 94 L 632 96 L 626 97 L 603 110 L 595 116 L 586 126 L 584 131 L 581 135 L 581 138 L 578 141 L 577 146 L 575 148 L 574 152 L 571 157 L 571 162 L 569 166 L 569 171 L 567 174 L 567 182 L 565 188 L 565 199 L 563 201 L 555 205 L 531 213 L 527 213 L 526 214 L 519 214 L 517 210 L 519 207 L 519 203 L 521 200 L 519 194 L 521 183 L 519 179 L 520 176 L 520 170 L 518 167 L 519 165 L 519 161 L 517 158 L 517 150 L 515 144 L 515 137 L 513 134 L 513 130 L 512 129 L 511 122 L 505 111 L 503 109 L 495 108 L 484 114 L 477 120 L 468 125 L 460 132 L 459 135 L 454 140 L 454 142 L 451 145 L 449 149 L 441 158 L 441 160 L 430 172 L 428 178 L 417 188 L 413 195 L 392 217 L 381 225 L 369 226 L 365 224 L 360 224 L 357 221 L 354 221 L 348 217 L 343 212 L 337 204 L 335 197 L 346 187 L 352 183 L 372 163 L 374 159 L 381 151 L 383 146 L 386 142 L 386 140 L 388 138 L 389 132 L 390 131 L 390 122 L 388 116 L 386 115 L 384 111 L 379 107 L 370 106 L 367 108 L 357 110 L 348 115 L 335 125 L 328 129 L 316 141 L 316 143 L 312 148 L 312 151 L 308 155 L 308 157 L 306 159 L 305 166 L 300 174 L 301 178 L 299 181 L 299 184 L 300 185 L 299 186 L 299 201 L 288 211 L 273 222 L 269 227 L 256 236 L 255 238 L 246 246 L 236 250 L 231 250 L 227 248 L 224 245 L 221 236 L 222 233 L 220 227 L 221 220 L 220 219 L 220 213 L 219 212 L 220 209 L 219 194 L 217 189 L 217 183 L 213 173 L 207 166 L 199 161 L 197 162 L 194 162 L 193 161 L 188 162 L 187 161 L 182 161 L 181 160 L 189 147 L 190 141 L 192 138 L 191 137 L 194 131 L 193 130 L 194 128 L 193 126 L 194 125 L 194 117 L 195 115 L 193 111 L 193 107 L 191 105 L 189 100 L 182 92 L 168 88 L 167 89 L 159 90 L 153 92 L 148 96 L 141 99 L 118 115 L 102 131 L 99 135 L 97 141 L 93 147 L 90 164 L 91 165 L 91 168 L 94 173 L 94 175 L 99 180 L 101 180 L 103 183 L 108 184 L 110 186 L 119 187 L 120 188 L 125 187 L 126 188 L 131 188 L 132 189 L 132 191 L 130 195 L 127 198 L 126 202 L 118 210 L 116 214 L 107 224 L 106 227 L 83 252 L 71 260 L 68 260 L 64 263 L 61 263 L 56 265 L 47 265 L 46 264 L 42 264 L 39 262 L 32 255 L 30 251 L 30 243 L 28 243 L 21 250 L 21 252 L 19 254 L 18 257 L 18 268 L 21 277 L 23 280 L 32 288 L 37 289 L 40 291 L 42 290 L 43 291 L 54 290 L 66 284 L 68 284 L 84 274 L 96 264 L 113 247 L 114 247 L 128 232 L 134 224 L 144 214 L 156 198 L 158 194 L 162 189 L 165 187 L 169 187 L 170 188 L 175 188 L 177 189 L 181 193 L 182 198 L 184 201 L 183 204 L 183 207 L 184 208 L 183 209 L 183 212 L 184 213 L 184 223 L 185 224 L 184 225 L 184 230 L 185 231 L 184 232 L 184 239 L 186 241 L 185 242 L 185 245 L 186 246 L 185 250 L 187 253 L 187 257 L 188 258 L 189 264 L 194 272 L 196 273 L 199 277 L 206 281 L 212 280 L 214 282 L 226 279 L 250 265 L 255 261 L 258 260 L 271 251 L 284 239 L 288 237 L 302 224 L 305 223 L 308 226 L 309 230 L 312 232 L 314 236 L 319 240 L 322 244 L 333 250 L 335 252 L 338 252 L 343 255 L 349 255 L 350 256 L 356 255 L 357 254 L 361 255 L 376 250 L 378 248 L 397 238 L 412 227 L 413 229 L 410 232 L 410 241 L 412 244 L 412 248 L 419 263 L 430 277 L 437 281 L 442 281 L 444 283 L 449 284 L 450 283 L 453 283 L 459 281 L 469 276 L 474 272 L 486 266 L 493 261 L 506 246 L 510 237 L 515 237 L 516 236 L 520 236 L 524 234 L 535 232 L 540 229 L 543 229 L 549 226 L 551 226 L 563 219 L 566 220 L 567 229 L 569 232 L 570 239 L 573 245 L 573 247 L 578 255 L 579 259 L 583 263 L 586 268 L 592 272 L 594 275 L 597 275 L 604 279 L 607 279 L 608 280 L 611 279 L 619 279 L 628 276 L 640 270 L 642 268 L 647 266 L 649 264 L 656 261 L 672 249 L 704 217 L 705 218 L 705 227 L 707 230 L 708 236 L 710 240 L 720 251 L 722 251 L 724 253 L 730 253 L 731 252 L 738 251 L 746 248 L 758 240 L 762 239 L 767 236 L 777 226 L 779 227 L 784 237 L 791 244 L 793 244 L 795 246 L 798 247 L 806 247 L 807 246 L 817 245 L 832 238 L 844 230 L 859 222 L 863 218 L 872 213 L 876 209 L 890 199 L 917 174 L 920 174 L 921 173 L 928 173 L 930 175 L 940 175 L 941 176 L 946 174 L 948 176 L 953 176 L 954 177 L 952 190 L 950 192 L 950 199 L 947 207 L 947 210 L 945 213 L 945 226 L 944 227 L 944 230 L 948 240 L 954 247 L 958 249 L 964 249 L 969 247 L 975 247 L 988 241 L 999 233 L 1014 225 L 1039 203 L 1052 193 L 1053 191 L 1055 190 L 1055 189 L 1073 172 L 1082 161 L 1083 164 L 1078 172 L 1077 181 L 1075 183 L 1075 192 L 1074 193 L 1074 197 L 1075 198 L 1074 200 L 1075 202 L 1075 209 L 1076 210 L 1077 216 L 1084 227 L 1092 233 L 1096 233 L 1099 235 L 1118 236 L 1130 231 L 1144 228 L 1156 222 L 1161 221 L 1175 214 L 1177 214 L 1185 209 L 1202 201 L 1219 190 L 1224 188 L 1251 169 L 1267 155 L 1268 156 L 1268 160 L 1265 163 L 1264 169 L 1261 173 L 1261 177 L 1257 183 L 1257 187 L 1255 189 L 1254 196 L 1252 199 L 1251 204 L 1248 208 L 1247 213 L 1245 215 L 1245 219 L 1243 222 L 1244 227 L 1246 228 L 1251 234 L 1255 234 L 1262 231 L 1271 224 L 1284 216 L 1304 196 L 1317 185 L 1330 171 L 1334 169 L 1346 158 L 1346 157 L 1353 151 L 1356 152 L 1357 158 L 1359 162 L 1359 166 L 1360 167 L 1359 168 L 1360 171 L 1360 177 L 1362 180 L 1361 181 L 1362 193 L 1368 207 L 1375 215 L 1378 216 L 1383 221 L 1393 222 L 1395 224 L 1408 224 L 1410 225 L 1411 224 L 1419 224 L 1423 222 L 1424 223 L 1428 223 L 1436 220 L 1441 220 L 1449 216 L 1457 215 L 1465 211 L 1471 210 L 1479 206 L 1486 204 L 1511 191 L 1513 189 L 1531 181 L 1536 177 L 1550 170 L 1567 159 L 1577 155 L 1580 155 L 1597 145 L 1606 136 Z M 448 236 L 449 235 L 454 235 L 460 237 L 471 237 L 472 240 L 469 245 L 469 248 L 467 249 L 466 248 L 462 248 L 460 246 L 457 245 L 452 241 Z M 423 218 L 424 217 L 425 218 L 424 219 Z M 767 164 L 771 166 L 775 170 L 777 175 L 767 187 L 759 203 L 755 208 L 753 214 L 747 219 L 744 214 L 744 210 L 743 209 L 743 196 L 742 193 L 745 184 L 744 181 L 746 178 L 746 176 L 758 166 L 764 164 Z M 474 159 L 475 160 L 474 165 L 475 168 L 477 170 L 477 173 L 476 174 L 476 179 L 477 180 L 476 181 L 477 182 L 477 187 L 478 188 L 478 192 L 477 193 L 478 195 L 478 209 L 477 210 L 478 215 L 477 216 L 476 215 L 472 215 L 471 216 L 468 214 L 456 214 L 455 213 L 454 214 L 452 212 L 447 212 L 446 211 L 445 212 L 437 212 L 425 218 L 424 217 L 449 191 L 461 176 L 462 173 Z M 348 138 L 350 140 L 349 141 L 350 144 L 345 152 L 345 155 L 341 159 L 340 162 L 335 168 L 334 167 L 334 163 L 336 161 L 336 157 L 340 152 L 340 150 L 342 148 L 343 144 Z M 621 122 L 623 123 L 627 128 L 627 132 L 628 133 L 628 140 L 627 141 L 627 144 L 628 145 L 626 148 L 626 151 L 623 155 L 622 160 L 619 162 L 607 175 L 599 181 L 598 180 L 598 176 L 599 175 L 600 167 L 601 166 L 601 161 L 602 160 L 602 157 L 606 146 L 607 140 L 610 135 L 611 131 L 614 128 L 615 125 L 618 122 Z M 140 122 L 142 123 L 148 123 L 153 128 L 153 139 L 154 140 L 152 146 L 153 151 L 151 153 L 151 156 L 149 158 L 149 160 L 145 163 L 142 163 L 137 161 L 135 162 L 131 160 L 127 160 L 124 158 L 121 154 L 121 147 L 127 134 L 137 123 Z M 944 86 L 946 88 L 946 92 L 947 93 L 946 96 L 941 100 L 939 105 L 933 113 L 933 115 L 928 121 L 928 123 L 919 132 L 917 128 L 917 123 L 918 122 L 918 115 L 920 113 L 920 108 L 926 100 L 929 94 L 934 89 L 940 87 L 943 87 Z" fill="#000000" fill-rule="evenodd"/>
</svg>
