<?xml version="1.0" encoding="UTF-8"?>
<svg xmlns="http://www.w3.org/2000/svg" viewBox="0 0 1649 340" role="img" aria-labelledby="title">
  <title id="title">Translation handwritten word, set 1</title>
  <path d="M 1630 155 L 1628 153 L 1627 150 L 1625 148 L 1623 148 L 1615 152 L 1607 159 L 1602 162 L 1590 166 L 1582 171 L 1561 178 L 1558 178 L 1553 181 L 1548 180 L 1545 182 L 1541 181 L 1532 184 L 1529 184 L 1528 183 L 1526 184 L 1518 184 L 1517 185 L 1515 184 L 1510 184 L 1507 186 L 1495 186 L 1494 185 L 1491 185 L 1486 187 L 1483 185 L 1480 186 L 1473 183 L 1474 182 L 1474 178 L 1478 170 L 1479 164 L 1483 155 L 1483 149 L 1484 148 L 1483 145 L 1485 142 L 1485 138 L 1484 137 L 1484 126 L 1482 123 L 1482 120 L 1478 111 L 1470 104 L 1467 104 L 1466 103 L 1464 104 L 1456 104 L 1447 109 L 1436 117 L 1411 138 L 1410 137 L 1410 134 L 1412 129 L 1412 124 L 1414 120 L 1413 117 L 1415 111 L 1414 101 L 1413 100 L 1413 93 L 1409 86 L 1405 82 L 1399 78 L 1393 78 L 1392 79 L 1387 79 L 1381 83 L 1369 86 L 1330 116 L 1327 113 L 1323 105 L 1317 100 L 1315 97 L 1307 91 L 1304 90 L 1302 91 L 1298 88 L 1294 88 L 1293 87 L 1291 88 L 1288 87 L 1286 88 L 1281 88 L 1278 90 L 1276 90 L 1267 95 L 1247 113 L 1244 117 L 1245 120 L 1244 122 L 1244 127 L 1234 134 L 1209 160 L 1184 178 L 1178 180 L 1170 186 L 1166 186 L 1161 188 L 1160 187 L 1163 180 L 1163 175 L 1165 172 L 1165 169 L 1168 165 L 1168 162 L 1171 156 L 1171 152 L 1173 149 L 1173 146 L 1176 141 L 1176 135 L 1179 130 L 1178 125 L 1175 120 L 1174 120 L 1172 117 L 1168 117 L 1158 124 L 1139 140 L 1124 158 L 1121 163 L 1096 187 L 1091 191 L 1077 199 L 1069 200 L 1067 198 L 1069 182 L 1071 179 L 1071 176 L 1073 173 L 1073 170 L 1076 164 L 1076 159 L 1078 157 L 1078 155 L 1082 148 L 1082 143 L 1085 139 L 1085 136 L 1087 133 L 1088 124 L 1092 119 L 1092 115 L 1094 112 L 1098 100 L 1108 96 L 1114 95 L 1117 93 L 1120 95 L 1130 95 L 1134 97 L 1145 98 L 1148 100 L 1157 96 L 1171 87 L 1175 83 L 1179 76 L 1179 74 L 1176 69 L 1168 63 L 1166 64 L 1163 61 L 1151 60 L 1150 59 L 1144 59 L 1141 61 L 1139 60 L 1137 61 L 1135 60 L 1134 61 L 1125 62 L 1111 69 L 1110 66 L 1112 64 L 1115 55 L 1117 52 L 1117 49 L 1121 38 L 1121 36 L 1118 32 L 1111 30 L 1091 43 L 1081 53 L 1080 58 L 1077 62 L 1077 65 L 1075 67 L 1074 73 L 1072 75 L 1072 79 L 1069 81 L 1068 80 L 1064 80 L 1063 81 L 1061 80 L 1054 80 L 1051 82 L 1049 82 L 1047 80 L 1045 81 L 1038 80 L 1037 81 L 1025 81 L 1019 83 L 1016 81 L 1013 81 L 1012 80 L 1011 81 L 1008 81 L 1007 80 L 997 80 L 993 78 L 988 78 L 979 75 L 978 76 L 975 76 L 973 78 L 970 79 L 960 87 L 959 90 L 961 92 L 962 96 L 965 99 L 979 108 L 983 108 L 986 110 L 996 111 L 998 113 L 1006 114 L 1007 115 L 1013 115 L 1014 116 L 1017 115 L 1024 116 L 1028 114 L 1030 115 L 1035 115 L 1036 114 L 1041 114 L 1045 112 L 1050 112 L 1051 111 L 1056 113 L 1048 125 L 1047 128 L 1044 131 L 1040 139 L 1035 144 L 1034 147 L 1023 161 L 1021 165 L 1008 178 L 1002 186 L 999 188 L 999 189 L 983 205 L 972 214 L 968 215 L 965 217 L 956 217 L 954 214 L 954 208 L 953 206 L 956 198 L 956 194 L 969 184 L 973 180 L 978 172 L 979 169 L 978 167 L 978 155 L 975 149 L 972 146 L 971 143 L 965 137 L 964 133 L 958 125 L 956 125 L 951 121 L 948 122 L 943 121 L 927 130 L 913 142 L 904 148 L 897 155 L 897 156 L 876 176 L 875 178 L 863 188 L 860 192 L 829 222 L 826 224 L 817 226 L 816 225 L 812 225 L 806 220 L 802 215 L 798 205 L 798 201 L 796 196 L 796 190 L 819 172 L 841 150 L 848 141 L 859 122 L 859 120 L 865 107 L 864 105 L 868 98 L 871 89 L 871 81 L 872 80 L 871 76 L 873 70 L 873 63 L 871 58 L 872 57 L 871 47 L 867 40 L 861 35 L 856 33 L 852 33 L 844 36 L 829 46 L 811 61 L 796 79 L 796 81 L 786 96 L 786 99 L 783 105 L 783 107 L 781 109 L 780 113 L 777 117 L 775 125 L 773 127 L 774 130 L 772 132 L 771 137 L 769 139 L 769 142 L 770 143 L 767 146 L 766 152 L 765 153 L 765 160 L 764 161 L 764 165 L 762 168 L 762 172 L 760 176 L 759 189 L 752 194 L 750 194 L 740 199 L 737 199 L 727 204 L 725 203 L 727 198 L 727 191 L 728 190 L 728 183 L 729 182 L 728 181 L 728 178 L 729 177 L 728 176 L 728 163 L 729 160 L 727 156 L 728 155 L 727 142 L 725 138 L 724 132 L 720 126 L 715 122 L 705 121 L 682 139 L 666 154 L 662 160 L 656 166 L 654 169 L 654 171 L 646 179 L 641 187 L 634 194 L 627 204 L 625 203 L 625 181 L 626 180 L 626 176 L 624 171 L 624 169 L 626 166 L 626 162 L 625 161 L 626 160 L 626 154 L 625 153 L 625 148 L 623 145 L 623 142 L 617 134 L 615 133 L 610 133 L 606 136 L 601 138 L 573 161 L 571 160 L 572 159 L 572 149 L 571 147 L 568 144 L 560 143 L 543 156 L 537 162 L 536 164 L 537 165 L 535 167 L 533 173 L 530 176 L 530 178 L 527 182 L 523 190 L 523 192 L 518 198 L 517 203 L 501 224 L 499 224 L 495 220 L 493 216 L 493 211 L 492 210 L 492 197 L 493 196 L 492 194 L 492 189 L 494 186 L 494 183 L 493 182 L 497 173 L 497 167 L 494 158 L 487 150 L 477 145 L 470 144 L 467 146 L 465 145 L 464 146 L 461 145 L 453 146 L 447 150 L 439 153 L 414 173 L 386 202 L 382 208 L 368 223 L 360 234 L 357 237 L 354 237 L 352 235 L 350 230 L 349 219 L 348 218 L 348 215 L 346 212 L 348 209 L 347 206 L 348 203 L 347 202 L 347 193 L 345 189 L 345 184 L 343 178 L 335 171 L 330 171 L 329 172 L 327 171 L 323 173 L 319 172 L 318 173 L 314 173 L 308 175 L 306 174 L 313 160 L 313 156 L 317 147 L 318 135 L 319 133 L 318 132 L 317 123 L 314 120 L 313 117 L 312 117 L 308 112 L 304 110 L 296 109 L 291 112 L 284 113 L 266 127 L 253 140 L 245 154 L 245 157 L 242 166 L 242 174 L 244 177 L 244 180 L 249 189 L 258 196 L 260 196 L 263 198 L 261 202 L 254 209 L 251 215 L 228 240 L 228 241 L 214 254 L 211 255 L 205 260 L 203 260 L 199 263 L 191 264 L 185 266 L 181 264 L 176 258 L 176 254 L 174 250 L 173 238 L 172 237 L 172 209 L 173 208 L 173 204 L 176 198 L 176 194 L 178 190 L 177 189 L 180 182 L 179 181 L 181 176 L 181 171 L 184 163 L 184 155 L 185 154 L 186 146 L 197 133 L 204 127 L 213 122 L 219 121 L 234 113 L 247 102 L 253 96 L 256 91 L 255 86 L 250 81 L 245 81 L 244 82 L 241 81 L 233 85 L 231 85 L 225 89 L 221 90 L 219 92 L 213 94 L 196 109 L 193 110 L 192 109 L 194 104 L 194 91 L 195 90 L 197 74 L 194 69 L 192 68 L 188 68 L 175 78 L 166 87 L 165 89 L 165 95 L 162 99 L 162 103 L 159 109 L 158 121 L 155 126 L 156 131 L 154 134 L 154 141 L 152 143 L 152 153 L 137 168 L 135 168 L 126 174 L 124 174 L 121 176 L 115 175 L 112 177 L 98 177 L 96 178 L 94 176 L 93 177 L 92 176 L 86 176 L 79 173 L 71 165 L 65 168 L 55 179 L 55 188 L 56 189 L 56 192 L 64 202 L 67 203 L 71 207 L 73 207 L 81 211 L 83 210 L 86 212 L 94 212 L 95 213 L 102 211 L 107 208 L 113 208 L 121 203 L 127 201 L 144 187 L 145 188 L 146 192 L 144 194 L 145 196 L 143 201 L 144 204 L 143 210 L 144 211 L 141 217 L 142 220 L 139 224 L 138 232 L 136 238 L 133 243 L 132 250 L 127 259 L 126 264 L 121 271 L 121 273 L 113 282 L 110 283 L 106 287 L 104 288 L 102 287 L 100 289 L 98 288 L 95 290 L 84 291 L 83 292 L 82 291 L 79 292 L 76 291 L 73 292 L 71 291 L 70 292 L 69 291 L 58 290 L 55 288 L 50 288 L 35 281 L 26 273 L 20 278 L 18 282 L 18 286 L 22 296 L 25 300 L 35 309 L 42 313 L 44 313 L 48 316 L 57 319 L 60 319 L 64 321 L 73 321 L 74 322 L 78 322 L 83 320 L 89 320 L 95 316 L 100 316 L 117 304 L 124 297 L 145 270 L 147 273 L 149 281 L 160 293 L 165 295 L 168 295 L 169 294 L 170 295 L 181 294 L 199 286 L 208 279 L 214 276 L 226 266 L 247 246 L 247 245 L 262 230 L 267 223 L 286 202 L 290 200 L 291 201 L 295 201 L 296 200 L 302 200 L 306 198 L 312 198 L 313 197 L 315 199 L 314 201 L 316 206 L 315 214 L 316 215 L 316 223 L 317 224 L 317 230 L 316 231 L 317 234 L 317 245 L 321 254 L 322 259 L 326 264 L 335 269 L 340 267 L 345 267 L 351 264 L 358 259 L 364 253 L 369 250 L 395 223 L 396 225 L 394 231 L 394 239 L 392 242 L 392 249 L 394 253 L 394 257 L 393 258 L 394 259 L 394 262 L 397 268 L 402 273 L 412 274 L 417 272 L 435 259 L 450 243 L 462 226 L 464 229 L 464 234 L 466 236 L 466 238 L 469 243 L 472 245 L 474 248 L 482 251 L 487 251 L 498 246 L 507 240 L 521 227 L 522 227 L 523 230 L 522 231 L 522 234 L 520 238 L 520 242 L 518 245 L 517 251 L 518 253 L 524 258 L 532 257 L 544 248 L 551 244 L 556 238 L 559 229 L 561 227 L 561 225 L 564 221 L 570 208 L 579 195 L 581 188 L 587 182 L 590 186 L 587 190 L 587 197 L 588 200 L 586 203 L 587 205 L 586 212 L 588 215 L 587 216 L 587 228 L 588 229 L 587 230 L 589 235 L 597 244 L 609 244 L 621 237 L 631 228 L 635 226 L 636 227 L 635 228 L 636 230 L 635 231 L 635 237 L 634 238 L 634 244 L 635 245 L 634 246 L 634 250 L 635 251 L 634 253 L 634 259 L 635 260 L 635 264 L 637 266 L 637 270 L 639 274 L 645 280 L 650 281 L 652 283 L 657 283 L 669 278 L 681 269 L 702 249 L 714 234 L 720 231 L 723 231 L 726 229 L 728 229 L 740 223 L 742 223 L 744 221 L 756 215 L 758 216 L 758 219 L 760 224 L 760 228 L 763 232 L 763 237 L 767 242 L 767 244 L 777 255 L 783 259 L 786 259 L 790 261 L 793 260 L 795 261 L 804 260 L 821 252 L 825 248 L 828 247 L 835 242 L 855 225 L 856 226 L 856 229 L 855 230 L 855 234 L 856 236 L 855 237 L 856 238 L 857 245 L 862 253 L 870 258 L 874 257 L 876 259 L 878 259 L 890 255 L 911 240 L 915 236 L 917 237 L 919 242 L 928 251 L 934 253 L 947 252 L 967 242 L 983 230 L 988 225 L 992 223 L 1012 204 L 1013 204 L 1020 197 L 1020 196 L 1031 186 L 1032 187 L 1032 192 L 1030 195 L 1030 198 L 1028 202 L 1028 206 L 1027 207 L 1027 213 L 1028 214 L 1027 217 L 1031 227 L 1037 233 L 1041 235 L 1046 235 L 1047 234 L 1049 235 L 1056 235 L 1059 233 L 1062 233 L 1067 230 L 1074 228 L 1111 200 L 1123 188 L 1124 191 L 1121 197 L 1120 206 L 1119 207 L 1119 215 L 1120 217 L 1127 225 L 1130 226 L 1134 226 L 1135 225 L 1139 226 L 1142 224 L 1146 224 L 1155 218 L 1161 216 L 1167 213 L 1172 209 L 1174 209 L 1193 197 L 1221 175 L 1222 176 L 1222 181 L 1218 187 L 1218 192 L 1216 197 L 1216 206 L 1220 212 L 1228 218 L 1237 218 L 1262 206 L 1272 198 L 1279 194 L 1284 189 L 1301 176 L 1316 161 L 1322 152 L 1324 147 L 1330 140 L 1339 134 L 1358 118 L 1363 115 L 1368 115 L 1369 114 L 1374 116 L 1374 124 L 1375 125 L 1374 126 L 1375 128 L 1375 133 L 1373 136 L 1374 140 L 1372 143 L 1372 145 L 1370 147 L 1370 151 L 1366 157 L 1366 160 L 1364 162 L 1364 165 L 1360 172 L 1360 174 L 1358 178 L 1355 181 L 1352 190 L 1349 193 L 1344 203 L 1342 205 L 1342 210 L 1349 215 L 1354 215 L 1360 213 L 1370 206 L 1376 200 L 1391 188 L 1401 178 L 1401 177 L 1412 167 L 1413 165 L 1426 154 L 1431 148 L 1441 139 L 1443 142 L 1443 147 L 1445 151 L 1444 154 L 1444 162 L 1443 163 L 1443 169 L 1440 174 L 1440 178 L 1438 181 L 1438 184 L 1435 190 L 1435 194 L 1433 196 L 1433 204 L 1434 205 L 1433 208 L 1435 212 L 1441 218 L 1449 222 L 1453 222 L 1454 223 L 1462 222 L 1463 221 L 1464 222 L 1477 222 L 1481 220 L 1484 220 L 1486 222 L 1491 222 L 1492 221 L 1498 221 L 1499 220 L 1516 219 L 1517 218 L 1527 217 L 1530 215 L 1538 215 L 1549 211 L 1556 210 L 1565 205 L 1572 203 L 1586 196 L 1593 191 L 1605 185 L 1616 175 L 1620 173 L 1626 167 L 1630 160 Z M 668 231 L 673 234 L 678 234 L 679 235 L 679 237 L 676 241 L 676 243 L 672 247 L 667 236 L 667 232 Z M 522 227 L 523 226 L 524 227 L 523 228 Z M 648 212 L 649 211 L 650 212 L 649 213 Z M 649 211 L 650 210 L 651 211 L 650 212 Z M 650 210 L 651 209 L 652 210 L 651 211 Z M 651 209 L 652 208 L 653 209 L 652 210 Z M 652 208 L 653 207 L 654 208 L 653 209 Z M 448 176 L 461 188 L 462 191 L 460 193 L 457 199 L 457 201 L 454 204 L 452 209 L 445 218 L 445 221 L 431 238 L 430 241 L 426 245 L 424 243 L 423 240 L 424 229 L 425 228 L 424 225 L 428 215 L 430 205 L 443 180 Z M 928 169 L 931 173 L 933 182 L 928 187 L 926 192 L 924 194 L 922 201 L 918 205 L 918 207 L 902 223 L 900 224 L 896 224 L 894 222 L 894 211 L 896 207 L 897 200 L 899 197 L 899 194 L 904 184 L 915 171 L 922 170 L 923 169 L 924 170 Z M 688 163 L 689 164 L 689 172 L 690 173 L 689 176 L 689 187 L 690 190 L 689 191 L 689 194 L 687 197 L 688 199 L 687 204 L 686 205 L 684 205 L 682 203 L 676 204 L 674 202 L 668 201 L 662 203 L 654 208 L 653 207 L 667 191 L 669 187 L 682 172 L 685 166 Z M 1288 158 L 1283 164 L 1272 174 L 1261 181 L 1257 179 L 1257 175 L 1259 172 L 1260 166 L 1263 162 L 1263 159 L 1266 151 L 1273 155 L 1276 155 L 1278 157 L 1281 157 L 1282 158 L 1287 157 Z M 277 142 L 280 142 L 282 145 L 282 155 L 283 156 L 281 169 L 279 171 L 276 169 L 272 164 L 272 153 L 273 152 L 274 146 Z M 1409 138 L 1410 137 L 1411 138 L 1410 139 Z M 835 65 L 838 71 L 838 76 L 837 77 L 837 85 L 836 86 L 835 100 L 832 106 L 833 108 L 831 111 L 831 118 L 828 121 L 828 124 L 825 127 L 824 131 L 820 137 L 820 139 L 817 142 L 817 144 L 812 149 L 805 159 L 799 164 L 798 163 L 799 160 L 798 156 L 800 153 L 800 147 L 804 138 L 804 130 L 808 121 L 808 117 L 810 114 L 810 111 L 812 108 L 814 100 L 816 97 L 816 95 L 820 86 L 822 84 L 829 71 L 832 67 Z M 1218 18 L 1215 16 L 1211 16 L 1206 19 L 1199 25 L 1185 34 L 1180 40 L 1181 44 L 1188 51 L 1192 51 L 1198 48 L 1210 37 L 1214 35 L 1220 28 L 1221 23 Z" fill="#000000" fill-rule="evenodd"/>
</svg>
